<svg width="30" height="30" viewBox="0 0 30 30" fill="none" xmlns="http://www.w3.org/2000/svg">
<path d="M21.25 19.0562V27.6462C21.25 27.7568 21.2207 27.8654 21.165 27.961C21.1094 28.0565 21.0294 28.1356 20.9332 28.1901C20.8369 28.2446 20.728 28.2726 20.6174 28.2713C20.5068 28.27 20.3986 28.2393 20.3038 28.1825L15 25L9.69625 28.1825C9.6013 28.2394 9.49295 28.27 9.38227 28.2713C9.27159 28.2726 9.16255 28.2445 9.0663 28.1898C8.97006 28.1351 8.89006 28.0559 8.83449 27.9601C8.77891 27.8644 8.74976 27.7557 8.75 27.645V19.0575C7.13269 17.7626 5.95749 15.9973 5.38682 14.0056C4.81616 12.014 4.87819 9.8942 5.56436 7.93931C6.25053 5.98441 7.52695 4.2909 9.21723 3.09282C10.9075 1.89473 12.9282 1.25122 15 1.25122C17.0718 1.25122 19.0925 1.89473 20.7828 3.09282C22.473 4.2909 23.7495 5.98441 24.4356 7.93931C25.1218 9.8942 25.1838 12.014 24.6132 14.0056C24.0425 15.9973 22.8673 17.7626 21.25 19.0575V19.0562ZM15 18.75C16.9891 18.75 18.8968 17.9598 20.3033 16.5533C21.7098 15.1467 22.5 13.2391 22.5 11.25C22.5 9.26085 21.7098 7.35319 20.3033 5.94667C18.8968 4.54014 16.9891 3.74997 15 3.74997C13.0109 3.74997 11.1032 4.54014 9.6967 5.94667C8.29018 7.35319 7.5 9.26085 7.5 11.25C7.5 13.2391 8.29018 15.1467 9.6967 16.5533C11.1032 17.9598 13.0109 18.75 15 18.75ZM15 16.25C13.6739 16.25 12.4021 15.7232 11.4645 14.7855C10.5268 13.8478 10 12.5761 10 11.25C10 9.92389 10.5268 8.65212 11.4645 7.71443C12.4021 6.77675 13.6739 6.24997 15 6.24997C16.3261 6.24997 17.5979 6.77675 18.5355 7.71443C19.4732 8.65212 20 9.92389 20 11.25C20 12.5761 19.4732 13.8478 18.5355 14.7855C17.5979 15.7232 16.3261 16.25 15 16.25Z" fill="#09121F"/>
</svg>
