<svg width="30" height="30" viewBox="0 0 30 30" fill="none" xmlns="http://www.w3.org/2000/svg">
<path d="M2.56245 16.25H9.4087C9.6226 20.2086 10.8844 24.0393 13.065 27.35C10.3336 26.921 7.82145 25.599 5.92123 23.5906C4.021 21.5823 2.83985 19.0009 2.56245 16.25ZM2.56245 13.75C2.83985 10.9992 4.021 8.41775 5.92123 6.40942C7.82145 4.40108 10.3336 3.07905 13.065 2.65002C10.8844 5.96079 9.6226 9.79146 9.4087 13.75H2.56245ZM27.4375 13.75H20.5912C20.3773 9.79146 19.1155 5.96079 16.935 2.65002C19.6663 3.07905 22.1785 4.40108 24.0787 6.40942C25.9789 8.41775 27.1601 10.9992 27.4375 13.75ZM27.4375 16.25C27.1601 19.0009 25.9789 21.5823 24.0787 23.5906C22.1785 25.599 19.6663 26.921 16.935 27.35C19.1155 24.0393 20.3773 20.2086 20.5912 16.25H27.4387H27.4375ZM11.9125 16.25H18.0875C17.8817 19.6244 16.8191 22.8906 15 25.74C13.1808 22.8906 12.1182 19.6244 11.9125 16.25ZM11.9125 13.75C12.1182 10.3757 13.1808 7.10948 15 4.26002C16.8191 7.10948 17.8817 10.3757 18.0875 13.75H11.9125Z" fill="#09121F"/>
</svg>
