<svg width="115" height="23" viewBox="0 0 115 23" fill="none" xmlns="http://www.w3.org/2000/svg">
<path fill-rule="evenodd" clip-rule="evenodd" d="M69.226 1.67199L69.247 18.2397H71.967C72.016 16.8376 71.946 15.3584 71.946 13.9801C71.946 13.1653 71.924 11.9749 71.946 11.2027H72.684L75.744 18.2397H78.686C78.671 18.0894 78.079 16.7565 77.963 16.4896C77.708 15.9022 77.452 15.2872 77.214 14.7157C77.036 14.2807 75.742 11.3045 75.746 11.1562C76.1512 11.145 76.5491 11.0471 76.9125 10.8695C77.2759 10.6918 77.596 10.4385 77.851 10.1269C78.3741 9.44097 78.6389 8.59622 78.6 7.73804V5.21077C78.588 4.35341 78.2926 3.52348 77.759 2.84763C77.5044 2.52693 77.1874 2.25993 76.8267 2.06242C76.4661 1.86491 76.069 1.74089 75.659 1.6977C75.1447 1.65016 74.6276 1.64156 74.112 1.67199H69.226ZM6.213 1.09555C6.2 1.30813 6.313 1.18651 6.138 1.3457C6.018 1.45546 6.056 1.50885 6.082 1.69572C6.0152 1.6974 5.94837 1.69443 5.882 1.68682C5.721 1.66606 5.854 1.68683 5.745 1.63838C5.728 1.82327 5.845 1.8826 5.773 2.07936C5.709 2.10309 5.649 2.04377 5.614 2.0497C5.541 2.06058 5.552 2.16242 5.543 2.2346C5.687 2.27019 5.815 2.33347 5.773 2.49365C5.73934 2.49789 5.70515 2.49477 5.67284 2.48452C5.64053 2.47427 5.61088 2.45714 5.586 2.43433L5.395 2.5332L5.331 2.39774L5.037 2.50552C4.91 2.54606 5.02 2.80215 4.898 2.95343C4.94695 3.02925 4.97233 3.1176 4.971 3.20754C4.849 3.19864 4.947 3.1759 4.812 3.13931C4.75027 3.25665 4.72554 3.3896 4.741 3.52098C4.756 3.80574 4.81 3.57635 4.984 3.6594C4.962 3.79091 4.954 3.72466 4.87 3.78695C4.7782 3.85863 4.66268 3.89388 4.546 3.88583C4.495 3.56151 4.446 3.5714 4.561 3.2817C4.505 3.33212 4.421 3.42408 4.34 3.43891C4.321 3.06812 4.54 3.27576 4.293 2.7181C4.006 2.75666 4.182 2.86246 4.061 3.08889C3.885 3.07406 3.911 2.96826 3.84 2.83478C3.761 2.93365 3.831 3.00682 3.758 3.14821C3.715 3.12448 3.741 3.13536 3.709 3.10965L3.64 3.05428C3.453 3.2817 3.64 3.46165 3.897 3.48736C3.858 3.67226 3.845 3.65248 3.953 3.87594C4.047 4.06084 4.18 3.90956 4.268 4.06084C4.334 4.01437 4.35 3.9847 4.468 4.04007C4.44 4.13302 4.328 4.21014 4.296 4.3367C4.596 4.3367 4.558 4.09643 4.804 4.07369C4.819 4.25859 4.843 4.18344 4.737 4.25859C4.57 4.38219 4.69 4.35747 4.563 4.47315L4.387 4.71935C4.531 4.80043 4.653 4.79549 4.333 4.9616C4.183 5.03971 4.082 4.89338 3.861 5.01697C3.934 5.22461 4.088 5.04861 4.153 5.2523C3.966 5.41149 4.053 5.13167 3.753 5.2691C3.631 5.32447 3.714 5.2691 3.637 5.36205L3.824 5.73283C3.762 5.83171 3.755 5.78128 3.695 5.91773C3.579 5.91773 3.595 5.88411 3.508 5.93256V6.0433C3.748 6.11351 3.899 6.01957 4.135 6.0433C4.521 6.0878 4.408 5.79315 4.457 5.69922C4.599 5.67153 4.557 5.69922 4.665 5.74964C4.723 5.77139 4.654 5.71108 4.749 5.78326C4.728 5.96816 4.638 5.89104 4.562 6.01859L4.429 6.1758L4.414 6.19261L4.375 6.2727C4.3 6.41903 4.315 6.31719 4.235 6.42793C4.155 6.53867 4.218 6.52681 4.106 6.59602C4.035 6.64447 3.981 6.65337 3.919 6.6949C3.799 6.77499 3.784 6.86496 3.619 6.97966C3.497 6.93319 3.628 6.95593 3.499 6.90353C3.312 7.0024 3.312 6.9589 3.099 7.00932C3.04037 7.13434 2.98863 7.26241 2.944 7.39296L3.131 7.29409C3.343 7.47898 3.146 7.49777 3.131 7.68069C3.27 7.66784 3.189 7.66388 3.277 7.64213C3.67 7.54325 3.504 7.58874 3.571 7.32177C3.582 7.27332 3.736 7.214 3.796 7.13687L4.171 6.67216C4.283 6.53373 4.207 6.48726 4.371 6.44079C4.37682 6.44829 4.38061 6.45714 4.382 6.46649V6.49022C4.44 6.68798 4.352 6.33795 4.397 6.54065C4.442 6.74335 4.21 6.80564 4.157 6.97076C4.14615 7.0095 4.14523 7.0503 4.1543 7.08948C4.16338 7.12867 4.18218 7.165 4.209 7.19521C4.054 7.3455 4.117 7.31881 4.192 7.49184C4.17045 7.53025 4.14118 7.56389 4.106 7.59071C4.006 7.68959 4.076 7.59071 4.016 7.71332C3.96325 7.90145 3.88307 8.08098 3.778 8.24626C3.73801 8.27508 3.70819 8.31559 3.69275 8.36208C3.67732 8.40857 3.67706 8.45867 3.692 8.50532C3.81387 8.53497 3.94258 8.51765 4.052 8.45687C4.08 8.29372 4.03 8.30658 4.114 8.16024C4.16227 8.08748 4.20538 8.01149 4.243 7.93282C4.357 7.65894 4.243 7.65894 4.543 7.51755V7.29112C4.691 7.31485 4.599 7.37121 4.813 7.36528C4.813 7.55017 4.766 7.49085 4.892 7.64114C5.018 7.79143 5.029 7.69651 5.117 7.86559C5.205 8.03467 5.257 7.98622 5.304 8.09696C5.32459 8.2038 5.33331 8.31256 5.33 8.42127C5.206 8.5419 5.191 8.445 5.051 8.64375C4.987 8.73076 4.922 8.89786 4.864 8.9641C4.772 9.07682 4.695 9.06298 4.607 9.21426C4.42 9.5534 4.545 9.31314 4.356 9.39916C4.32066 9.48155 4.30859 9.57187 4.3211 9.66051C4.3336 9.74914 4.3702 9.83276 4.427 9.90244C4.551 10.1249 4.416 10.2455 4.588 10.3266C4.627 10.1931 4.545 10.0873 4.588 9.88365C5.006 9.73336 4.972 10.3078 5.298 10.3503C5.431 10.1002 5.307 10.119 5.326 9.90244C5.671 10.0013 5.598 10.4581 6.115 10.1763C6.293 10.0834 6.244 10.119 6.458 10.1002L6.527 9.90244C6.66066 9.90778 6.79248 9.93518 6.917 9.98351C6.895 10.1536 6.823 10.113 6.73 10.2129C6.637 10.3128 6.687 10.3741 6.582 10.4799L6.406 10.7201C6.34256 10.8052 6.28668 10.8955 6.239 10.9901C6.35875 11.2165 6.44208 11.46 6.486 11.7119C6.555 11.8859 6.54 11.7633 6.628 11.877C6.549 12.0026 6.57 12.0342 6.617 12.1736C6.767 12.1271 6.804 11.9759 6.917 11.8889L6.999 11.9996C7.099 11.9571 7.089 11.9007 7.156 11.968C7.17789 11.9931 7.1916 12.0242 7.19534 12.0572C7.19909 12.0902 7.1927 12.1235 7.177 12.1529C7.093 12.3249 7.055 12.1014 7.037 12.496C6.827 12.5147 6.803 12.496 6.752 12.6809C6.685 12.9271 6.722 12.9013 6.852 13.022C6.794 13.1347 6.708 13.1683 6.629 13.2702C6.522 13.4086 6.599 13.4966 6.595 13.6755L6.372 13.7556C6.372 13.9405 6.453 13.9079 6.432 14.0799C6.245 14.0523 6.256 13.8951 6.11 13.8021C5.973 13.7635 5.887 14.0137 5.451 13.7408C5.351 13.7764 5.395 13.7942 5.264 13.8397C5.18084 13.87 5.09261 13.8844 5.004 13.8822C5.026 13.7546 5.06 13.7952 5.073 13.6973C4.901 13.6676 4.886 13.721 4.837 13.5717C4.788 13.4224 4.837 13.4017 4.697 13.3591C4.64662 13.3357 4.58964 13.3301 4.53557 13.3432C4.48151 13.3564 4.43365 13.3875 4.4 13.4313C4.239 13.6162 4.37 13.4758 4.181 13.5717C4.254 13.6844 4.351 13.7566 4.381 13.8179C4.40017 13.8783 4.42391 13.9371 4.452 13.9939C4.523 14.0928 4.514 14.0256 4.559 14.1195C4.55201 14.2051 4.51699 14.2862 4.45926 14.3504C4.40152 14.4147 4.3242 14.4585 4.239 14.4755C4.15282 14.4892 4.07093 14.5222 3.99955 14.5718C3.92816 14.6215 3.86915 14.6866 3.827 14.7622C3.88897 14.7716 3.95203 14.7716 4.014 14.7622C4.08141 14.7591 4.14889 14.7664 4.214 14.7839C4.26668 14.7054 4.34664 14.6486 4.43877 14.6244C4.53089 14.6002 4.6288 14.6102 4.714 14.6524C4.798 14.7948 4.751 14.7968 4.735 14.9006C4.719 15.0044 4.78 15.0232 4.786 15.1844C4.705 15.3307 4.649 15.2655 4.666 15.4415C4.683 15.6175 4.713 15.6264 4.638 15.7875C4.451 16.1969 4.338 16.183 3.964 16.3432C3.814 16.4085 3.764 16.365 3.601 16.4085C3.438 16.452 3.451 16.4955 3.331 16.5469C3.172 16.6171 3.144 16.5469 3.011 16.5172L2.981 16.5528C2.874 16.6695 2.691 16.6517 2.581 16.7625C2.60133 16.779 2.62388 16.7926 2.648 16.803L2.71 16.8327C2.74757 16.8501 2.78398 16.8699 2.819 16.892V17.0591C2.727 17.1204 2.733 17.0719 2.632 17.1481C2.666 17.333 2.671 17.2242 2.772 17.3458C2.873 17.4674 2.772 17.4368 2.941 17.5307C3.1 17.507 3.014 17.4882 3.216 17.4773C3.316 17.4773 3.351 17.4052 3.416 17.3389C3.59 17.328 3.763 17.326 3.839 17.4378C3.915 17.5495 3.839 17.5179 3.985 17.5653C4.131 17.6128 4.101 17.5297 4.133 17.68C4.033 17.7413 3.824 17.6098 3.914 17.8649C4.00409 17.8856 4.09666 17.8935 4.189 17.8887C4.403 17.8887 4.238 17.8887 4.376 17.8224C4.595 17.7127 4.631 17.9608 4.676 18.0943C4.727 18.2555 4.723 18.1606 4.818 18.2535C4.913 18.3465 4.857 18.3524 4.945 18.4216C5.10064 18.5037 5.27749 18.5381 5.453 18.5205C5.553 18.4018 5.569 18.3148 5.753 18.2654C5.796 18.2545 6.24 18.214 6.294 18.2149L6.27 18.389C6.12199 18.436 5.98426 18.5101 5.864 18.6075C5.65 18.7647 5.739 18.7578 5.639 19.003C5.47255 19.0149 5.30545 19.0149 5.139 19.003C4.75151 18.7638 4.29161 18.6663 3.839 18.7271C3.81461 18.7869 3.79586 18.8488 3.783 18.912C3.714 19.2828 3.525 19.0969 3.309 19.0841C3.144 19.2512 3.195 19.5122 3.084 19.6042L2.9 19.7594C2.838 19.7999 2.861 19.7594 2.784 19.8256C2.707 19.8919 2.737 19.8869 2.684 19.9354C2.538 20.0036 2.444 19.8424 2.251 20.1895L1.891 20.5138C1.78644 20.5894 1.66732 20.6429 1.541 20.671C1.371 20.6859 1.062 20.5603 1.041 20.9746C1.441 21.0339 1.202 20.7472 1.472 20.8935C1.789 21.0636 1.603 21.0566 1.719 21.2643C1.745 21.29 1.803 21.2643 1.819 21.2643C2.006 21.2069 1.98 21.1456 2.019 20.9568C2.309 20.8846 2.18 20.8312 2.53 20.7887C2.52928 20.7246 2.55282 20.6625 2.596 20.6147C2.68891 20.6001 2.784 20.6083 2.873 20.6384C3.083 20.675 3.182 20.587 3.36 20.6868C3.418 20.7185 3.39 20.7165 3.46 20.7254H3.567C3.648 20.9677 3.715 20.8243 3.867 20.9311C4.067 21.0754 3.734 21.0883 4.212 21.1288L4.238 21.0883C4.322 20.9647 4.425 20.9499 4.538 20.851C4.504 20.7046 4.512 20.8658 4.484 20.7027C4.598 20.5949 4.596 20.3952 4.767 20.3319C5.091 20.2172 5.007 20.1964 5.293 20.1944C5.579 20.1925 5.611 20.1262 5.821 20.2646C5.94123 20.3612 6.0545 20.4659 6.16 20.5781C6.36 20.5563 6.16 20.4792 6.535 20.5988C6.65431 20.6572 6.78019 20.7013 6.91 20.7304L6.951 20.6878C7.118 20.4693 6.951 20.4753 7.387 20.4753C7.44108 20.4725 7.49474 20.486 7.541 20.5138C7.687 20.6008 7.593 20.5672 7.618 20.6246C7.643 20.6819 7.627 20.6562 7.687 20.6908C7.7326 20.7124 7.77392 20.7418 7.809 20.7778C7.938 20.8965 7.909 20.8876 8.129 20.8886C8.211 20.8075 8.275 20.7897 8.316 20.7037C8.216 20.5188 7.96 20.6048 8.022 20.3645C8.181 20.3477 8.17 20.4575 8.422 20.5029C8.56632 20.5149 8.70053 20.581 8.797 20.6878C8.906 20.6068 8.853 20.5801 9.037 20.5801C9.513 20.5801 9.687 20.5059 9.786 20.7027C10.161 20.677 10.125 20.8322 10.402 20.8876C10.602 20.7027 10.589 20.7373 10.917 20.6898C11.091 20.6641 11.059 20.6265 11.16 20.5751C11.261 20.5237 11.347 20.5751 11.495 20.6068C11.495 20.5979 11.504 20.5751 11.508 20.5811C11.527 20.6255 11.544 20.4713 11.559 20.4387C11.692 20.1272 12.224 20.3813 12.259 19.9937C12.289 19.6773 12.259 19.8494 12.359 19.6121C12.213 19.5043 11.848 19.5587 11.67 19.5765C11.518 19.4153 11.685 19.4776 11.423 19.352C11.254 19.2739 11.314 19.2462 11.091 19.1839C11.145 19.0742 11.05 19.1543 11.183 19.0949C11.316 19.0356 11.792 19.2304 11.698 18.6174C11.664 18.3909 11.898 18.6174 12.073 18.5521C12.1154 18.5382 12.1541 18.515 12.1862 18.4844C12.2184 18.4538 12.2433 18.4165 12.259 18.3751C12.293 18.1902 12.259 18.3118 12.583 18.0271C12.727 17.9015 12.77 17.9658 12.849 17.7305C12.8733 17.5857 12.9282 17.4475 13.01 17.3251C13.0858 17.1944 13.1312 17.0487 13.1428 16.8985C13.1544 16.7483 13.1319 16.5974 13.077 16.4569C12.9045 16.206 12.6987 15.9792 12.465 15.7826C12.047 15.6234 12.105 15.7341 11.785 15.6837C11.274 15.6076 11.485 15.7826 11.296 15.9803C11.2449 15.9831 11.1937 15.9758 11.1454 15.9588C11.0972 15.9419 11.0529 15.9156 11.015 15.8815C10.915 15.7648 11.002 15.7579 10.798 15.6837C10.898 15.3337 11.424 15.3357 11.326 14.9026C11.298 14.8453 11.307 14.8808 11.281 14.8492C11.135 14.6791 11.191 14.5654 11.163 14.342C10.897 14.2144 11.054 14.2569 10.88 14.0622C10.76 13.9564 10.638 13.9366 10.638 13.7329C10.784 13.7794 10.76 13.8456 10.848 13.8862C10.936 13.9267 10.985 13.8862 11.148 13.9662C11.148 13.7477 10.83 13.3789 10.796 13.0764C10.774 12.8786 10.826 12.8786 10.882 12.756C10.618 12.5582 10.828 12.6156 10.727 12.4337C10.684 12.3575 10.656 12.3872 10.615 12.2488C10.5875 12.0883 10.5284 11.9348 10.441 11.7969C10.235 11.525 9.763 11.4261 9.666 11.1779L9.651 11.1334C9.64215 11.1112 9.63213 11.0894 9.621 11.0682C9.54632 10.7988 9.5037 10.5217 9.494 10.2426C9.468 10.1279 9.4 10.0774 9.408 9.92419C9.41201 9.87813 9.41201 9.83182 9.408 9.78576C9.365 9.50199 9.498 9.07484 9.344 8.86028C9.29244 8.77533 9.23355 8.69494 9.168 8.62002C8.911 8.38271 9.016 8.26109 8.868 8.06433C8.787 7.95458 8.752 8.02181 8.493 7.80923L8.118 7.53337C7.961 7.50173 7.918 7.63224 7.867 7.69651C7.75454 7.7073 7.64104 7.69534 7.53342 7.66134C7.42579 7.62734 7.3263 7.57202 7.241 7.49876C7.357 7.38901 7.428 7.478 7.548 7.38901L7.79 7.18532C8 7.06173 8.116 7.34649 8.39 7.05382C8.313 6.88869 8.27 6.95494 8.148 6.83135C8.126 6.67216 8.17 6.79278 8.159 6.6682C8.142 6.4833 8.125 6.69589 8.114 6.53472C8.271 6.5011 8.223 6.56043 8.331 6.50901C8.631 6.36663 8.619 6.29742 8.771 6.02946C8.871 5.84456 8.977 5.87423 9.099 5.73283C9.221 5.59144 9.208 5.47872 9.324 5.3314C9.554 5.04268 9.361 4.96061 9.792 4.55126C10.185 4.17158 9.814 4.07765 9.657 3.77904C9.42667 3.7984 9.19475 3.77184 8.975 3.70093C8.314 3.48439 8.619 3.72862 8.344 3.61194C8.157 3.53581 8.13 3.39936 7.928 3.44484C7.801 3.47648 7.928 3.4745 7.769 3.50417C7.7064 3.5064 7.64398 3.51201 7.582 3.52098C7.307 3.59118 7.492 3.63963 7.044 3.56943C7.057 3.45275 7.444 3.18282 7.544 3.02462C7.41149 3.05883 7.27142 3.05052 7.144 3.00089C7.189 2.87334 7.244 2.94947 7.307 2.80314C7.37 2.6568 7.341 2.74183 7.494 2.63801L7.942 2.37105C8.129 2.26031 8.129 2.15846 8.369 2.08431C8.609 2.01015 8.62 1.92709 8.744 1.75505C8.72 1.67397 8.644 1.66606 8.697 1.5573C8.74937 1.48847 8.79681 1.41612 8.839 1.34076C8.839 1.34076 8.822 1.32197 8.818 1.32988L8.41 1.18157C8.391 1.28044 8.41 1.24782 8.444 1.33483C8.274 1.33483 8.257 1.23595 8.069 1.25375C7.881 1.27155 7.895 1.36647 7.655 1.2666C7.479 1.19244 7.468 1.3022 7.269 1.2666C7.027 1.22408 7.082 1.18157 6.924 1.10741C6.813 1.16476 6.907 1.144 6.804 1.20629C6.671 1.04314 6.65 0.9413 6.394 0.902738C6.306 1.07182 6.381 0.986783 6.213 1.09555ZM45.525 18.2189H48.218L48.227 11.4815H52.2L52.23 18.1774H54.946V1.64431H52.191V8.39458C51.791 8.42622 48.445 8.43907 48.23 8.3837C48.181 7.45822 48.208 5.97607 48.209 4.99818C48.209 4.45535 48.187 3.90165 48.187 3.34102C48.2175 2.78052 48.2038 2.21853 48.146 1.66013H45.5L45.525 18.2189ZM93.225 18.2189L102.625 18.1724V15.1448L95.968 15.1893V11.5309C96.343 11.4993 96.768 11.4993 97.137 11.4993C98.25 11.4993 99.759 11.5378 100.78 11.4993L100.8 8.51817H95.93L95.973 4.75297L102.547 4.73221L102.581 1.65815H93.19L93.225 18.2189ZM17.459 18.2189H20.05C20.076 16.8801 20.031 15.5413 20.031 14.2075C20.031 13.2632 19.931 13.5945 20.54 12.7244C20.686 12.5147 21.27 11.6446 21.387 11.5517L23.794 16.2404C24.08 16.8602 24.2169 17.537 24.194 18.2179L26.784 18.2288C26.8636 17.2832 26.7195 16.3323 26.363 15.4514C26.2 15.0944 25.988 14.7592 25.801 14.3954L23.046 9.02442L24.2 7.40582C24.717 6.69984 25.408 5.67944 25.936 5.00708C26.3687 4.41631 26.6226 3.71606 26.668 2.98803C26.7194 2.54357 26.7458 2.09662 26.747 1.64925H24.1C24.1828 2.39657 23.9791 3.14741 23.529 3.75333L20.755 7.71431C20.661 7.84581 20.568 7.9882 20.474 8.11772C20.42 8.19781 20.39 8.23242 20.339 8.30262C20.315 8.33921 20.303 8.36788 20.27 8.41237C20.201 8.50334 20.27 8.45094 20.158 8.50532L20.122 1.67199H17.46L17.459 18.2189ZM107.808 13.6874C107.708 13.6765 105.433 14.4616 105.296 14.5526C105.262 14.9036 105.3 15.2578 105.408 15.5937C105.497 15.8936 105.611 16.1858 105.747 16.4678C106.018 17.0346 106.455 17.5077 107.001 17.8251C107.548 18.1426 108.179 18.2899 108.811 18.2476C109.631 18.2476 110.444 18.2268 111.266 18.2288C111.593 18.2688 111.924 18.234 112.235 18.127C112.546 18.02 112.827 17.8437 113.058 17.6118C113.514 17.2438 113.884 16.7818 114.141 16.2582C114.418 15.6024 114.527 14.8892 114.459 14.1818C114.506 13.4157 114.462 12.6468 114.328 11.8908C113.819 9.78181 112.056 9.33489 110.406 8.54586C109.88 8.2957 109.282 8.01094 108.706 7.80527C108.436 7.70137 108.204 7.51859 108.041 7.28123C107.845 6.5982 107.832 5.87673 108.002 5.18704C108.324 4.56511 108.802 4.70353 109.289 4.71342C109.879 4.67075 110.471 4.67075 111.061 4.71342C111.868 4.81922 111.874 5.53706 111.861 6.29544C112.067 6.29544 114.12 5.68043 114.453 5.57364C114.517 4.87813 114.395 4.17827 114.1 3.54372C113.877 3.00734 113.498 2.54881 113.01 2.22669C112.452 1.8595 111.792 1.67355 111.122 1.69474C110.322 1.69474 109.517 1.67397 108.698 1.67298C108.069 1.65303 107.447 1.81657 106.911 2.14322C106.375 2.46988 105.948 2.94523 105.683 3.5101C105.391 4.11855 105.239 4.78351 105.239 5.45697L105.261 6.63854C105.219 7.62398 105.532 8.59214 106.145 9.37048C106.943 10.2457 107.966 10.8903 109.106 11.2353L109.956 11.6061C110.25 11.7336 110.518 11.8691 110.816 11.9769C111.1 12.0561 111.354 12.2164 111.546 12.4376C111.797 12.7896 111.733 12.9824 111.771 13.4264C111.791 13.8098 111.773 14.1942 111.719 14.5743C111.693 14.7232 111.623 14.8615 111.52 14.9728C111.416 15.084 111.283 15.1637 111.135 15.2022C110.948 15.2408 109.075 15.219 108.726 15.219C107.753 15.2111 107.835 14.2451 107.813 13.6874H107.808ZM57.308 18.2229C57.975 18.2466 59.222 18.2397 59.93 18.1952L60.492 15.5394L63.492 15.5117L64.054 18.2041C64.964 18.2041 65.77 18.2041 66.676 18.1764C66.676 17.9707 65.902 14.4112 65.829 14.0315C65.541 12.6532 65.213 11.2818 64.951 9.91826C64.689 8.55476 64.369 7.14083 64.095 5.79414C64.007 5.36304 63.275 1.96071 63.241 1.65716H61.141C60.57 1.65716 60.615 1.59784 60.579 1.82031C60.129 4.1607 59.618 6.53373 59.179 8.85732C58.679 11.5171 58.089 14.3627 57.548 17.0393C57.4466 17.43 57.3685 17.8261 57.314 18.2258L57.308 18.2229ZM61.069 12.6354C61.0271 12.5996 60.9941 12.5548 60.9726 12.5043C60.9511 12.4539 60.9417 12.3993 60.945 12.3447C60.9562 12.2238 60.9762 12.1038 61.005 11.9858L61.366 9.91924C61.392 9.77291 61.756 7.57687 61.802 7.51161C61.8146 7.4886 61.833 7.46918 61.8554 7.45524C61.8778 7.44129 61.9034 7.43329 61.9298 7.43199C61.9563 7.4307 61.9826 7.43617 62.0063 7.44786C62.0299 7.45956 62.0502 7.47709 62.065 7.49876C62.147 7.5917 62.786 10.9654 62.887 11.5398C63.007 12.2082 63.224 12.6512 62.722 12.6512L61.069 12.6354ZM42.721 14.5061L40.207 13.6231C40.1769 14.0038 40.0673 14.3742 39.885 14.7108C39.8037 14.8688 39.6822 15.0031 39.5325 15.1005C39.3827 15.198 39.2099 15.2552 39.031 15.2665L37.671 15.303C37.2619 15.3723 36.8411 15.2997 36.48 15.0974C36.3259 14.9951 36.2022 14.854 36.1215 14.6888C36.0409 14.5235 36.0062 14.34 36.021 14.1571C36.021 13.6844 36.043 13.2593 36.043 12.7956C36.043 10.9841 35.998 9.09165 35.998 7.25849C35.998 6.02551 35.779 4.68771 37.549 4.68771C37.785 4.68771 37.999 4.68771 38.212 4.7065C38.986 4.76583 39.868 4.42866 40.136 6.334C40.305 6.334 42.473 5.50839 42.758 5.39171C42.6854 4.68704 42.4552 4.00716 42.084 3.40134C41.7585 2.84829 41.2801 2.39859 40.705 2.10507C40.024 1.72071 39.2339 1.56918 38.457 1.67397C37.057 1.67397 36.164 1.58103 35.022 2.29392C34.7533 2.46558 34.51 2.67322 34.299 2.91091C33.8655 3.43739 33.5554 4.05231 33.391 4.71144C33.249 5.53385 33.2124 6.37067 33.282 7.20213C33.282 7.65993 33.256 12.2112 33.293 12.5414C33.2708 13.3964 33.3176 14.2518 33.433 15.0994C33.6234 15.9063 34.0319 16.6469 34.615 17.242C34.755 17.3498 34.825 17.4477 34.99 17.5584C35.2628 17.7569 35.5598 17.9207 35.874 18.0459C36.6911 18.2447 37.5361 18.3072 38.374 18.2308C38.78 18.2308 39.256 18.207 39.661 18.1843C40.0306 18.1554 40.3883 18.0421 40.706 17.8531C41.2797 17.5535 41.7547 17.0979 42.075 16.54C42.4287 15.9126 42.6479 15.2199 42.719 14.5051L42.721 14.5061ZM81.221 18.21H90.672V15.2111L83.909 15.2368L83.9 1.65123H81.224L81.221 18.21ZM86.748 22.0078L90.661 22.0227V21.3305H87.4L87.415 21.1456H90.655V20.4614H87.402L87.411 20.2765H90.659C90.6688 20.0421 90.6594 19.8074 90.631 19.5745H86.745L86.748 22.0078ZM42.109 22.0078H42.954V21.3157H45.4V22.0078H46.254C46.3025 21.2917 46.278 20.5725 46.181 19.8612C46.027 19.5518 45.722 19.5646 45.327 19.5646H43.058C42.652 19.5646 42.35 19.5349 42.183 19.8385C42.0712 20.5581 42.0446 21.2881 42.104 22.0138L42.109 22.0078ZM42.965 20.2726L45.411 20.2854V20.6038H42.959L42.965 20.2726ZM81.829 20.5464H79.578V21.0636H81.114V21.288L78.503 21.3028V20.2894H81.813L81.832 19.5854C80.852 19.5597 79.845 19.5854 78.863 19.5854C78.352 19.5854 77.927 19.5448 77.837 20.056C77.7996 20.5417 77.7959 21.0293 77.826 21.5154C77.895 22.0434 78.291 22.0286 78.804 22.0286H80.304C81.853 22.0286 81.825 22.1215 81.825 20.5623L81.829 20.5464ZM68.888 22.0207H69.618V21.3335L72.18 21.3226V22.0207H72.92C72.9675 21.311 72.9454 20.5984 72.854 19.8929C72.704 19.5794 72.466 19.5794 72.049 19.5794H69.825C69.419 19.5794 69.125 19.5686 68.971 19.8761C68.8643 20.5858 68.8364 21.305 68.888 22.0207ZM69.628 20.6097C69.592 20.2043 69.613 20.2854 70.003 20.2874C70.393 20.2894 72.02 20.2597 72.203 20.3002V20.6186L69.628 20.6097ZM2.053 8.49642L1.836 8.7357C1.778 8.75646 1.396 8.56563 1.371 8.71889C1.36628 8.73406 1.3592 8.7484 1.35 8.76141C1.26451 8.91632 1.16078 9.06069 1.041 9.19152C0.911998 9.33983 0.958999 9.2637 0.778999 9.29039C0.503999 9.33291 0.726999 9.29039 0.570999 9.27754H0.549999C0.409999 9.27754 0.455999 9.35862 0.549999 9.44464C0.643999 9.53066 0.644 9.49309 0.625 9.60581C0.578519 9.60893 0.532339 9.59638 0.493999 9.57021C0.433999 9.66909 0.493999 9.70864 0.216999 9.61668C0.167999 9.72644 0.199999 9.69776 0.0859985 9.75412L0 9.79862L0.244999 10.2594C0.317999 10.4146 0.180999 10.3978 0.390999 10.4888C0.632999 10.5946 0.5 10.6737 0.636 10.729C0.715 10.7508 0.735998 10.729 0.811998 10.7528C0.887998 10.7765 0.882999 10.7884 0.970999 10.821C1.095 10.73 0.970999 10.7765 1.071 10.6934C1.127 10.643 1.14 10.6638 1.213 10.6272V10.4294C1.30922 10.3647 1.40941 10.3059 1.513 10.2534C1.713 10.3632 1.67 10.5698 1.728 10.8348C1.795 10.8625 1.837 10.8566 1.902 10.8882C1.902 11.0454 1.842 11.0158 1.838 11.2294L2.145 11.2511L2.136 11.3885C2.203 11.3371 2.166 11.3777 2.217 11.3015C2.288 11.1957 2.217 11.2402 2.317 11.1809C2.42765 11.2593 2.52837 11.3506 2.617 11.4528C3.017 11.3342 2.875 11.1562 3.017 11.0514C3.159 10.9466 3.317 11.2491 3.579 10.8477C3.64091 10.7352 3.67752 10.6107 3.68632 10.4829C3.69513 10.3551 3.67591 10.2269 3.63 10.1071C3.55033 10.0817 3.46823 10.0645 3.385 10.0557C3.271 10.0557 3.285 10.0962 3.166 10.0923C3.166 9.92419 3.372 9.92221 3.507 9.84212C3.569 9.43475 3.395 9.84212 3.252 9.13813C3.222 8.98783 3.211 9.12132 3.207 8.98091C3.207 8.76437 3.383 8.70307 3.033 8.61013C2.919 8.57849 2.767 8.47467 2.679 8.4806L2.366 8.54388C2.171 8.57255 2.24 8.51521 2.053 8.49642ZM33.161 22.0157H34.045V21.1545H36.48V22.0177H37.37V19.5982H36.48V20.4594H34.051V19.6002H33.165L33.161 22.0157ZM51.8 22.0286H54.373C55.025 22.0286 55.15 21.8308 55.148 21.1951V19.5933H54.339V21.3177H51.844V19.5933H51.024V21.199C51.016 21.821 51.155 22.0286 51.8 22.0286ZM59.949 22.0177C60.906 22.0602 62.82 22.0395 63.832 22.0286H64.04V21.3286H60.726V19.5933H59.947L59.949 22.0177ZM3.671 1.25375C3.411 1.57015 3.571 1.48116 3.532 1.68386C3.504 1.82624 3.48 1.66705 3.47 1.83613C3.54344 1.89259 3.62415 1.93914 3.71 1.97455C3.682 2.07343 3.731 1.99334 3.545 2.12287C3.453 2.18912 3.459 2.199 3.345 2.17132L3.36 2.35622C3.575 2.37302 3.36 2.47684 3.618 2.33941C3.876 2.20197 3.706 2.33941 3.818 2.14165C3.884 2.17527 3.869 2.16341 3.908 2.2079C3.91606 2.19222 3.92308 2.17604 3.929 2.15945C3.961 2.10408 3.929 2.1377 3.968 2.10013C4.03687 2.11498 4.10859 2.11033 4.17492 2.08672C4.24125 2.06311 4.2995 2.0215 4.343 1.96664C4.443 1.86085 4.343 1.81833 4.53 1.49995C4.678 1.24584 4.697 1.3368 4.759 1.22409C4.759 1.21749 4.759 1.21057 4.759 1.20332C4.859 0.990738 4.859 0.942289 4.8 0.832536C4.633 0.84539 4.452 1.01743 4.238 1.07281C4.13769 1.08727 4.04255 1.12599 3.961 1.18552C3.827 1.28341 3.81 1.28638 3.669 1.25375H3.671ZM8.971 0.103819C8.836 0.0672353 8.731 0.0207638 8.671 0.172044C8.62611 0.291065 8.62225 0.421412 8.66 0.542829C8.544 0.570515 8.578 0.542829 8.503 0.616986C8.53288 0.718066 8.56928 0.817146 8.612 0.913615C8.852 0.94921 8.758 0.913615 8.912 0.858244L9 1.00656L9.393 0.66247C9.281 0.433077 8.993 0.549751 9.035 0.365841L9.084 0.238291L9.099 0.221482C9.166 0.149303 9.181 0.221482 9.221 0.0988755C9.155 -5.67247e-07 9.178 0.0484493 9.062 0C8.973 0.0385617 9.009 0.0514151 8.966 0.103819H8.971ZM2.603 3.76223L2.79 3.84529C2.77897 3.7075 2.81034 3.56963 2.88 3.44978C2.944 3.32421 2.895 3.37365 2.917 3.25203C2.98938 3.0825 3.08097 2.92162 3.19 2.77248C3.34 2.51837 3.19 2.65383 3.22 2.37698C3.085 2.44026 3.252 2.41258 3.089 2.49959C3.01713 2.52915 2.93983 2.54363 2.862 2.5421C2.557 2.59747 2.918 2.60736 2.783 2.97024L2.691 3.29455C2.60962 3.43675 2.57666 3.60107 2.597 3.76322L2.603 3.76223ZM72.003 4.73122H74.822C76.004 4.77176 75.848 5.42335 75.848 6.48726C75.8974 6.92172 75.8635 7.3615 75.748 7.78352C75.516 8.25912 75.139 8.23736 74.793 8.23736C73.879 8.23736 72.907 8.29076 71.999 8.24626L72.003 4.73122Z" fill="white"/>
</svg>
