<svg width="30" height="30" viewBox="0 0 30 30" fill="none" xmlns="http://www.w3.org/2000/svg">
<path d="M16.25 13.75V7.49996H13.75V16.25H21.25V13.75H16.25ZM22.955 21.705L15 29.66L7.04501 21.705C5.47168 20.1316 4.40023 18.1271 3.96616 15.9448C3.53209 13.7625 3.75488 11.5005 4.60637 9.44484C5.45786 7.38918 6.8998 5.63218 8.74985 4.39602C10.5999 3.15986 12.775 2.50006 15 2.50006C17.225 2.50006 19.4001 3.15986 21.2502 4.39602C23.1002 5.63218 24.5421 7.38918 25.3936 9.44484C26.2451 11.5005 26.4679 13.7625 26.0338 15.9448C25.5998 18.1271 24.5283 20.1316 22.955 21.705Z" fill="#09121F"/>
</svg>
