<svg width="30" height="30" viewBox="0 0 30 30" fill="none" xmlns="http://www.w3.org/2000/svg">
<path d="M21.355 19.765C22.5305 18.523 23.3163 16.9638 23.6153 15.28C23.9142 13.5962 23.7132 11.8618 23.0371 10.291C22.361 8.72023 21.2395 7.382 19.8111 6.44172C18.3827 5.50144 16.7101 5.00034 15 5.00034C13.2899 5.00034 11.6173 5.50144 10.1889 6.44172C8.76052 7.382 7.63896 8.72023 6.96287 10.291C6.28678 11.8618 6.08579 13.5962 6.38475 15.28C6.6837 16.9638 7.4695 18.523 8.645 19.765C9.31959 18.6886 10.2567 17.8013 11.3683 17.1864C12.48 16.5716 13.7297 16.2493 15 16.25C16.2704 16.2493 17.52 16.5716 18.6317 17.1864C19.7433 17.8013 20.6804 18.6886 21.355 19.765ZM15 29.66L7.04501 21.705C5.47168 20.1317 4.40023 18.1271 3.96616 15.9448C3.53209 13.7626 3.75488 11.5006 4.60637 9.4449C5.45786 7.38924 6.8998 5.63224 8.74985 4.39608C10.5999 3.15992 12.775 2.50012 15 2.50012C17.225 2.50012 19.4001 3.15992 21.2502 4.39608C23.1002 5.63224 24.5421 7.38924 25.3936 9.4449C26.2451 11.5006 26.4679 13.7626 26.0338 15.9448C25.5998 18.1271 24.5283 20.1317 22.955 21.705L15 29.66ZM15 15C14.0054 15 13.0516 14.6049 12.3484 13.9017C11.6451 13.1984 11.25 12.2446 11.25 11.25C11.25 10.2555 11.6451 9.30164 12.3484 8.59837C13.0516 7.89511 14.0054 7.50002 15 7.50002C15.9946 7.50002 16.9484 7.89511 17.6517 8.59837C18.3549 9.30164 18.75 10.2555 18.75 11.25C18.75 12.2446 18.3549 13.1984 17.6517 13.9017C16.9484 14.6049 15.9946 15 15 15Z" fill="#09121F"/>
</svg>
