<svg width="30" height="30" viewBox="0 0 30 30" fill="none" xmlns="http://www.w3.org/2000/svg">
<path d="M5 18.75V10.625C5 9.13316 5.59263 7.70242 6.64752 6.64752C7.70242 5.59263 9.13316 5 10.625 5C12.1168 5 13.5476 5.59263 14.6025 6.64752C15.6574 7.70242 16.25 9.13316 16.25 10.625V19.375C16.25 20.2038 16.5792 20.9987 17.1653 21.5847C17.7513 22.1708 18.5462 22.5 19.375 22.5C20.2038 22.5 20.9987 22.1708 21.5847 21.5847C22.1708 20.9987 22.5 20.2038 22.5 19.375V11.0375C21.6656 10.7426 20.9624 10.1623 20.5145 9.39899C20.0667 8.63573 19.9031 7.73872 20.0527 6.86651C20.2023 5.99431 20.6555 5.20307 21.332 4.63266C22.0086 4.06225 22.8651 3.74939 23.75 3.74939C24.6349 3.74939 25.4914 4.06225 26.168 4.63266C26.8445 5.20307 27.2977 5.99431 27.4473 6.86651C27.5969 7.73872 27.4333 8.63573 26.9855 9.39899C26.5376 10.1623 25.8344 10.7426 25 11.0375V19.375C25 20.8668 24.4074 22.2976 23.3525 23.3525C22.2976 24.4074 20.8668 25 19.375 25C17.8832 25 16.4524 24.4074 15.3975 23.3525C14.3426 22.2976 13.75 20.8668 13.75 19.375V10.625C13.75 9.7962 13.4208 9.00134 12.8347 8.41529C12.2487 7.82924 11.4538 7.5 10.625 7.5C9.7962 7.5 9.00134 7.82924 8.41529 8.41529C7.82924 9.00134 7.5 9.7962 7.5 10.625V18.75H11.25L6.25 25L1.25 18.75H5Z" fill="#09121F"/>
</svg>
