<svg width="273" height="205" viewBox="0 0 273 205" fill="none" xmlns="http://www.w3.org/2000/svg">
<g clip-path="url(#clip0)">
<path d="M273.036 183.981V193.643H219.539C219.539 193.643 209.305 181.156 196.789 182.86C184.273 184.565 178.595 179.451 178.595 179.451C178.595 179.451 169.776 170.646 160.391 170.829L158.118 171.02V140.823C158.118 140.823 175.18 138.553 185.98 149.938C185.98 149.938 195.657 164.139 208.739 162.434H230.348C230.348 162.434 241.723 161.86 250.825 176.106C259.927 190.353 273.036 183.981 273.036 183.981Z" fill="#004DDA"/>
<path d="M55.168 120.388H66.543V131.17H38.1055V120.388H48.9145L33.5957 104.482H70.779L55.168 120.388Z" fill="black" stroke="black" stroke-width="4" stroke-miterlimit="10"/>
<path d="M70.779 104.482H33.5957L52.3289 85.7426L70.779 104.482Z" fill="#333333" stroke="#333333" stroke-width="4" stroke-miterlimit="10"/>
<path d="M66.5429 131.17H38.1054V142.527H66.5429V131.17Z" fill="#333333" stroke="#333333" stroke-width="4" stroke-miterlimit="10"/>
<path d="M121.144 72.6811C107.496 72.6811 96.1212 82.9078 96.1212 82.9078L158.118 82.7893V140.823C152.88 141.01 147.635 140.778 142.434 140.13C136.627 139.447 132.519 138.553 132.519 138.553C123.39 137.988 110.91 122.083 110.91 122.083C98.9603 104.482 73.9372 104.482 73.9372 104.482H70.7785L52.3283 85.7425L33.5952 104.482H-0.000325885V48.4632L84.7462 48.2626C82.3721 44.9407 79.2026 42.2653 75.5269 40.4805C71.8512 38.6957 67.7864 37.8584 63.7033 38.045C49.48 38.6101 45.4997 38.6101 40.3782 32.3665C35.2567 26.1229 23.8908 26.688 23.8908 26.688C23.8908 26.688 17.0622 26.1229 10.197 33.4967C3.33184 40.8706 -0.0459747 37.571 -0.0459747 37.571V0H123.116C123.116 0 123.417 34.8093 158.118 35.2923V60.203C145.601 59.647 141.055 65.8724 141.055 65.8724C141.055 65.8724 134.792 72.6811 121.144 72.6811Z" fill="#F2F2F2"/>
<path d="M84.7465 48.2626L0 48.4632V37.5254C0 37.5254 3.41433 40.8341 10.243 33.4511C17.0716 26.0682 23.9368 26.6424 23.9368 26.6424C23.9368 26.6424 35.3118 26.0773 40.4241 32.3209C45.5365 38.5645 49.5534 38.5645 63.7493 37.9994C67.8289 37.8256 71.8872 38.6736 75.5546 40.4662C79.2219 42.2588 82.3819 44.939 84.7465 48.2626Z" fill="white"/>
<path d="M142.434 140.13C136.628 139.447 132.52 138.553 132.52 138.553C123.39 137.988 110.911 122.083 110.911 122.083C98.9607 104.482 73.9375 104.482 73.9375 104.482H70.7788L55.1678 120.379H66.5428V142.527H38.1053V120.379H48.9143L33.5955 104.482H0V164.64H61.4305C61.4305 164.64 85.8876 163.564 98.3947 181.712C98.3947 181.712 99.9466 184.337 104.173 186.269C109.193 184.717 114.355 183.67 119.584 183.143C121.637 182.965 123.702 182.965 125.755 183.143C128.539 183.334 133.305 181.785 139.914 177.2C144.608 173.972 150.014 171.927 155.671 171.239L158.118 171.038V140.823C152.88 141.01 147.635 140.778 142.434 140.13ZM55.1678 164.111H49.4803V143.147H55.1678V164.111Z" fill="#004DDA"/>
<path d="M55.1678 143.102H49.4803V164.111H55.1678V143.102Z" fill="#333333" stroke="#333333" stroke-width="4" stroke-miterlimit="10"/>
<path d="M174.605 204.991H0V164.676H61.4305C61.4305 164.676 85.8876 163.564 98.3947 181.712C98.3947 181.712 99.9466 184.337 104.173 186.269C108.044 188.092 114.216 189.286 123.418 187.381C142.763 183.407 159.825 191.939 159.825 191.939C159.825 191.939 167.786 195.338 174.605 204.991Z" fill="black"/>
</g>
<defs>
<clipPath id="clip0">
<rect width="273" height="205" fill="white"/>
</clipPath>
</defs>
</svg>
