<svg width="248" height="206" viewBox="0 0 248 206" fill="none" xmlns="http://www.w3.org/2000/svg">
<g clip-path="url(#clip0)">
<path d="M24.3591 118.314V128.259H71.0037V118.314H24.3591ZM44.0592 125.639H31.0993V122.502H44.0592V125.639ZM63.7513 125.639H51.3116V122.502H63.7513V125.639Z" fill="#004DDA"/>
<path d="M30.5787 128.259V164.376H23.8386V175.373H0V118.314H24.3589V128.259H30.5787Z" fill="#E6E6E6"/>
<path d="M103.351 81.145H96.923V118.314H103.351V81.145Z" fill="#D6D6D6"/>
<path d="M51.3114 85.3333H35.2455V92.6586H51.3114V85.3333Z" fill="#004DDA"/>
<path d="M63.75 122.502H51.3104V125.639H63.75V122.502Z" fill="black"/>
<path d="M44.0583 122.502H31.0983V125.639H44.0583V122.502Z" fill="black"/>
<path d="M51.3114 132.447H35.2455V139.772H51.3114V132.447Z" fill="#004DDA"/>
<path d="M103.343 128.259L103.135 164.643H96.923V128.259H103.343Z" fill="#D6D6D6"/>
<path d="M83.9802 164.902L71.0202 164.78L30.5955 164.376H23.8553V175.372H0.264893L143.553 175.898V164.902H83.9802ZM43.5554 171.71H30.5795V168.564H43.5394L43.5554 171.71ZM63.2475 171.71H50.7918V168.564H63.2315L63.2475 171.71ZM102.64 175.372H79.8176V171.176H102.624L102.64 175.372ZM134.251 175.372H111.437V171.176H134.235L134.251 175.372Z" fill="#004DDA"/>
<path d="M218.198 205.733H0L0.264163 175.372L143.552 175.898V175.372H153.454C154.284 175.364 155.113 175.413 155.936 175.518C164.141 176.601 167.503 182.73 178.277 192.125C189.676 202.07 185.53 198.933 200.563 199.976C215.596 201.019 218.198 205.733 218.198 205.733Z" fill="black"/>
<path d="M102.623 171.184H79.817V175.373H102.623V171.184Z" fill="black"/>
<path d="M134.234 171.184H111.428V175.373H134.234V171.184Z" fill="black"/>
<path d="M143.048 118.314V128.259H134.234V124.071H111.428V128.259H102.623V124.071H79.8169V128.259H71.0035V118.314H143.048Z" fill="#004DDA"/>
<path d="M102.623 124.071H79.817V128.259H102.623V124.071Z" fill="black"/>
<path d="M134.234 124.071H111.428V128.259H134.234V124.071Z" fill="black"/>
<path d="M103.352 128.259L103.144 164.643H96.9239V128.259H63.7516V164.376H30.5793L71.0041 164.781L83.964 164.902H136.308V128.259H103.352Z" fill="white"/>
<path d="M162.741 131.922V165.953L143.569 165.84V164.902H136.308V128.259H143.049V118.314C148.444 118.314 154.183 122.858 158.066 126.698L158.354 126.989L158.61 127.256L159.322 128.008C160.699 129.472 161.724 130.717 162.3 131.38L162.532 131.663L162.653 131.808L162.701 131.873L162.741 131.922Z" fill="#D6D6D6"/>
<path d="M248 167.78V206C248 206 240.227 206 236.081 197.623C231.934 189.247 226.235 186.102 211.722 184.007C197.209 181.913 195.912 180.612 187.619 170.658C179.326 160.705 162.74 165.953 162.74 165.953V131.921C162.74 131.921 174.147 146.055 179.326 148.674C184.505 151.294 194.359 152.337 194.359 152.337C194.359 152.337 208.872 152.862 215.092 151.819C221.312 150.776 233.231 151.819 238.41 157.576C243.589 163.333 248 167.78 248 167.78Z" fill="#F2F2F2"/>
<path d="M63.231 168.565H50.7913V171.702H63.231V168.565Z" fill="black"/>
<path d="M43.5392 168.565H30.5793V171.702H43.5392V168.565Z" fill="black"/>
<path d="M0 0V118.314H31.0991V81.1209H136.308V118.314H143.048C147.715 117.368 153.886 122.47 158.065 126.698L158.353 126.989L158.609 127.256L159.322 128.008C160.722 129.464 161.763 130.717 162.299 131.38L162.532 131.663L162.652 131.808L162.7 131.873V0.525551L0 0ZM103.127 53.7275C98.0681 62.7508 88.6303 71.2001 88.6303 71.2001L81.7381 64.2385C80.6814 63.1632 79.5688 62.1363 78.4641 61.1176C76.9148 59.6852 75.5414 58.07 74.3736 56.3068C71.8248 52.4157 70.7969 47.7075 71.4891 43.0946C72.1812 38.4817 74.5441 34.2926 78.1199 31.339C81.3576 28.6574 85.5089 27.3681 89.6789 27.7491C94.0334 27.9879 98.1235 29.9345 101.078 33.1744C103.534 35.9379 105.056 39.4185 105.424 43.1131C105.792 46.8078 104.988 50.525 103.127 53.7275Z" fill="#F2F2F2"/>
<path d="M136.307 81.145H103.343V118.314H136.307V81.145Z" fill="white"/>
<path d="M31.0984 81.145V118.338H63.7504V81.145H31.0984ZM51.3108 92.6586H35.2449V85.3333H51.3108V92.6586Z" fill="#D6D6D6"/>
<path d="M96.9234 81.145H63.7511V118.314H96.9234V81.145Z" fill="white"/>
<path d="M101.062 33.1745C98.1076 29.9346 94.0175 27.988 89.663 27.7492C85.493 27.3682 81.3417 28.6575 78.1039 31.3391C74.5308 34.2949 72.171 38.4851 71.4818 43.0979C70.7926 47.7107 71.8231 52.4177 74.3737 56.3069C75.5465 58.071 76.9252 59.6862 78.4802 61.1177C79.5849 62.1364 80.6975 63.1633 81.7542 64.2386L88.6464 71.2002C88.6464 71.2002 98.0682 62.7509 103.127 53.7276C104.986 50.5234 105.788 46.8052 105.416 43.1105C105.045 39.4158 103.52 35.9361 101.062 33.1745ZM88.8866 49.2079C88.22 49.2079 87.5684 49.0082 87.0142 48.6342C86.46 48.2602 86.0281 47.7285 85.773 47.1065C85.5179 46.4846 85.4512 45.8001 85.5812 45.1398C85.7113 44.4795 86.0322 43.873 86.5035 43.397C86.9749 42.9209 87.5754 42.5967 88.2291 42.4654C88.8828 42.334 89.5604 42.4014 90.1762 42.6591C90.792 42.9167 91.3183 43.353 91.6887 43.9128C92.059 44.4726 92.2566 45.1307 92.2566 45.8039C92.2566 46.7067 91.9016 47.5725 91.2695 48.2109C90.6375 48.8492 89.7803 49.2079 88.8866 49.2079Z" fill="black"/>
<path d="M88.887 49.2079C90.7483 49.2079 92.2571 47.6839 92.2571 45.804C92.2571 43.924 90.7483 42.4 88.887 42.4C87.0258 42.4 85.517 43.924 85.517 45.804C85.517 47.6839 87.0258 49.2079 88.887 49.2079Z" fill="#F2F2F2"/>
<path d="M30.5793 128.259V164.376H63.7516V128.259H30.5793ZM51.312 139.773H35.2461V132.447H51.312V139.773Z" fill="#D6D6D6"/>
</g>
<defs>
<clipPath id="clip0">
<rect width="248" height="206" fill="white"/>
</clipPath>
</defs>
</svg>
