<svg width="273" height="205" viewBox="0 0 273 205" fill="none" xmlns="http://www.w3.org/2000/svg">
<g clip-path="url(#clip0)">
<path d="M207.589 204.991H0V148.804H38.1298C42.562 148.965 46.8955 150.157 50.7852 152.284C53.308 153.746 55.4483 155.783 57.0312 158.229C59.0013 161.174 63.0957 166.585 68.2977 169.285C68.7243 170.055 70.5219 170.844 72.7098 171.542L72.9186 171.614C74.2437 172.075 75.5998 172.441 76.9767 172.711H77.0857C79.9999 173.418 82.5328 173.871 82.5328 173.871V173.49C84.8569 173.717 87.5623 173.862 90.7034 173.871C94.0806 173.871 97.9662 173.735 102.424 173.372L105.256 173.146C111.484 172.675 117.712 172.312 123.958 172.122C136.85 171.732 155.025 171.36 162.705 172.058L163.731 172.158C171.872 173.106 179.447 176.791 185.211 182.607L207.589 204.991Z" fill="black"/>
<path d="M82.4616 175.211C80.633 175.047 78.8146 174.784 77.0145 174.423H76.9056C75.9977 174.187 74.99 173.934 74.0458 173.662L72.8475 173.308L72.6387 173.236C71.7138 172.915 70.8278 172.493 69.9968 171.976C69.4884 171.659 68.9619 171.333 68.4262 171.07L68.2265 170.97V132.464C68.2265 132.464 69.3704 112.98 55.7163 97.4925C46.3638 87.0685 36.4921 77.1205 26.1385 67.6864L-0.0166779 41.3148V20.6798L28.3809 49.2444C28.2436 48.9985 28.137 48.7368 28.0632 48.4651C27.4912 46.5076 26.3746 40.1821 26.1385 20.0998C26.1385 19.692 26.1385 19.2842 26.1385 18.8673C26.0841 13.5659 26.0841 7.34001 26.1385 0.00854492H40.3736V32.1437C40.3736 32.1437 40.3736 32.2525 40.3736 32.4609C40.3736 32.6693 40.3736 32.8234 40.3736 33.05C40.419 37.4362 41.336 56.9565 52.8838 71.1119C65.966 87.1614 75.6346 98.0453 77.3414 104.933C78.9482 111.421 82.5615 119.695 82.1257 147.435C82.1257 148.115 82.1257 148.804 82.1257 149.511C82.1257 151.051 82.0168 152.592 81.9986 154.132C81.9986 154.676 81.9986 155.229 81.9986 155.773L82.4616 175.211Z" fill="black"/>
<path d="M28.4067 48.837L0 20.4808V0.045166H26.1552C25.6286 43.9524 28.1252 48.4654 28.4067 48.837Z" fill="#F2F2F2"/>
<path d="M105.211 175.593L90.6852 176.327L90.8214 156.616L91.0483 124.399C91.0483 124.399 90.4854 99.6408 74.5527 81.217C58.6199 62.7932 50.0498 53.0149 48.9059 32.8601C47.762 12.7054 48.9059 0.0452881 48.9059 0.0452881H62.5236C62.5236 0.0452881 57.9844 33.4401 68.2068 48.9821C78.4292 64.5241 84.1305 69.1278 89.2508 76.6133C94.3711 84.0988 104.04 97.3389 105.174 131.894C105.529 142.442 105.665 150.626 105.683 156.897C105.737 171.17 105.211 175.593 105.211 175.593Z" fill="black"/>
<path d="M272.991 128.921V176.608H211.312C208.789 176.606 206.324 175.855 204.23 174.451C200.381 171.859 194.789 166.539 189.959 162.416C181.997 155.601 166.074 155.03 166.074 155.03L105.738 154.713C105.738 148.523 105.583 140.458 105.229 130.054C104.094 95.9887 94.4259 82.9298 89.3056 75.553C84.1853 68.1762 78.5022 63.6269 68.2434 48.3387C57.9847 33.0505 62.5603 0.081543 62.5603 0.081543H102.715L102.942 14.8079C102.942 14.8079 83.0414 11.4005 76.2053 26.7249C69.3692 42.0494 80.1908 51.139 80.1908 51.139C80.1908 51.139 90.9942 63.6269 109.197 53.4136C109.197 53.4136 120 47.1697 117.158 28.9996L127.962 29.1536V70.4418C127.962 70.4418 123.986 100.529 154.126 97.1305H182.56C182.56 97.1305 210.431 95.4268 225.229 117.566C240.027 139.706 272.991 128.921 272.991 128.921Z" fill="#F2F2F2"/>
<path d="M127.971 0.0452881V14.8532L117.158 14.8079L117.358 0.0452881H127.971Z" fill="#F2F2F2"/>
<path d="M90.9937 122.65L90.7668 154.414L81.9788 154.26L81.8971 151.034C84.1667 119.805 79.573 110.57 77.3578 103.909C75.3605 97.9461 65.9824 86.31 52.9003 70.3784C39.8181 54.4467 40.3719 31.8361 40.3719 31.8361V0.0452881H48.8967C48.8967 0.0452881 47.7618 12.5332 48.8967 32.407C50.0315 52.2808 58.5743 61.9323 74.4981 80.057C90.4218 98.1818 90.9937 122.65 90.9937 122.65Z" fill="#F2F2F2"/>
<path d="M68.2432 131.187V154.042C68.2432 154.042 57.7757 149.384 54.7525 123.23C53.9402 115.768 51.1289 108.662 46.6143 102.66C42.0996 96.6575 36.0484 91.98 29.0966 89.1193L27.862 88.648C7.96186 81.2622 0 85.8115 0 85.8115V40.9165L26.1552 67.0343C36.5042 76.3747 46.376 86.2289 55.733 96.5595C69.4234 111.884 68.2432 131.187 68.2432 131.187Z" fill="#F2F2F2"/>
<path d="M127.962 29.1536L117.158 28.9996C120 47.1243 109.196 53.4136 109.196 53.4136C90.994 63.6269 80.1906 51.139 80.1906 51.139C80.1906 51.139 69.3871 42.0766 76.2051 26.7249C83.0231 11.3733 102.941 14.8079 102.941 14.8079L102.714 0.0452881H117.358L117.158 14.8079H127.962V29.1536Z" fill="white"/>
<path d="M96.1142 44.0431C100.667 44.0431 104.357 40.359 104.357 35.8144C104.357 31.2699 100.667 27.5858 96.1142 27.5858C91.5615 27.5858 87.8708 31.2699 87.8708 35.8144C87.8708 40.359 91.5615 44.0431 96.1142 44.0431Z" fill="#F2F2F2"/>
<path d="M97.9663 175.756L98.1025 131.35C98.1025 131.35 97.821 93.1703 81.0439 75.5349C72.2012 66.2429 64.7357 55.7358 58.8742 44.3331C56.9955 40.5015 56.0174 36.2924 56.0145 32.0264V0.0452881" stroke="#004DDA" stroke-width="3" stroke-miterlimit="10"/>
<path d="M75.0702 175.756V136.47C75.0702 134.014 75.0702 131.559 75.1429 129.103C75.2155 124.01 74.0534 106.574 56.8678 87.1529C42.7961 71.2485 25.7648 55.3349 16.4866 46.9522C13.2274 43.9979 10.0862 40.9076 7.04492 37.7267C5.14751 35.733 2.50567 33.5399 0 33.5399" stroke="#004DDA" stroke-width="3" stroke-miterlimit="10"/>
<path d="M32.8915 0.0452881C32.8915 0.0452881 31.2755 48.9277 41.2256 70.7318" stroke="#004DDA" stroke-width="3" stroke-miterlimit="10"/>
<path d="M75.1426 134.313L70.2947 142.488L74.961 140.195L79.4095 142.76L75.1426 134.313Z" fill="#004DDA"/>
<path d="M84.058 78.8699L82.0062 69.5809L80.1724 74.4474L75.1701 75.5983L84.058 78.8699Z" fill="#004DDA"/>
</g>
<defs>
<clipPath id="clip0">
<rect width="273" height="205" fill="white"/>
</clipPath>
</defs>
</svg>
