<svg width="30" height="30" viewBox="0 0 30 30" fill="none" xmlns="http://www.w3.org/2000/svg">
<path d="M17.6514 13.1C17.417 12.8657 17.0991 12.734 16.7676 12.734C16.4362 12.734 16.1183 12.8657 15.8839 13.1L15.0001 13.9825C14.7695 14.2213 14.4936 14.4117 14.1886 14.5428C13.8836 14.6738 13.5556 14.7428 13.2236 14.7456C12.8917 14.7485 12.5625 14.6853 12.2552 14.5596C11.948 14.4339 11.6689 14.2482 11.4341 14.0135C11.1994 13.7788 11.0138 13.4996 10.8881 13.1924C10.7624 12.8852 10.6991 12.556 10.702 12.224C10.7049 11.8921 10.7738 11.564 10.9049 11.259C11.0359 10.954 11.2263 10.6781 11.4651 10.4475L18.5026 3.40752C20.1688 3.02855 21.912 3.18451 23.4844 3.85323C25.0568 4.52195 26.3784 5.66939 27.2612 7.13238C28.144 8.59537 28.5431 10.2994 28.4018 12.0023C28.2604 13.7052 27.5858 15.3201 26.4739 16.6175L23.8389 19.2863L17.6514 13.0988V13.1ZM3.95136 5.58502C5.24481 4.29174 6.93663 3.47249 8.75331 3.25972C10.57 3.04696 12.4053 3.45311 13.9626 4.41252L9.69636 8.68002C8.77236 9.60218 8.24565 10.8491 8.22878 12.1545C8.21191 13.4598 8.70622 14.72 9.60608 15.6657C10.5059 16.6114 11.74 17.1677 13.0445 17.2157C14.3491 17.2637 15.6207 16.7996 16.5876 15.9225L16.7676 15.7513L22.0714 21.0538L16.7676 26.3575C16.2988 26.8262 15.663 27.0895 15.0001 27.0895C14.3372 27.0895 13.7014 26.8262 13.2326 26.3575L3.95011 17.075C2.42652 15.5513 1.57059 13.4848 1.57059 11.33C1.57059 9.17525 2.42652 7.10873 3.95011 5.58502H3.95136Z" fill="#09121F"/>
</svg>
